<?xml version="1.0" encoding="UTF-8" standalone="no"?>
<!-- Created with Inkscape (http://www.inkscape.org/) -->

<svg
   width="140.70769mm"
   height="65.485924mm"
   viewBox="0 0 140.70769 65.485924"
   version="1.1"
   id="svg5"
   xmlns="http://www.w3.org/2000/svg"
   xmlns:svg="http://www.w3.org/2000/svg">
  <defs
     id="defs2" />
  <g
     id="layer1"
     transform="translate(-14.646135,-71.468507)">
    <g
       id="g3387"
       style="stroke:none">
      <path
         id="path986"
         style="fill:#000000;fill-opacity:1;stroke:none;stroke-width:0;stroke-dasharray:none;fill-rule:nonzero"
         d="m 47.389355,71.600798 c -18.010314,-3.6e-5 -32.61068,14.600098 -32.610929,32.610412 -3.7e-5,18.01051 14.600413,32.61097 32.610929,32.61093 7.179917,-0.004 14.157517,-2.37779 19.474264,-6.48126 5.066393,-3.48524 11.523023,-5.49844 18.136361,-5.50044 6.615453,0.001 13.074423,2.01401 17.74827,5.18987 5.05086,4.18233 12.34032,6.78737 19.86287,6.79183 18.01031,-2.5e-4 32.61045,-14.60062 32.61041,-32.61093 -2.5e-4,-18.010111 -14.6003,-32.610162 -32.61041,-32.610412 -7.52255,0.0045 -14.81226,2.609502 -19.34714,6.477124 -4.350724,3.342422 -11.210627,5.639394 -18.264,5.649784 C 77.946605,83.717316 71.086701,81.420087 66.344788,77.761145 61.545609,73.970696 54.56789,71.601574 47.389355,71.600798 Z M 46.638497,74.258 c 1.459894,-0.02008 2.921971,0.04329 4.371826,0.218591 4.464113,0.527698 8.917699,2.046112 12.683464,4.622457 4.180279,3.291413 9.145122,5.575235 14.371732,6.579443 8.579306,1.636549 17.87257,0.26641 25.287861,-4.467427 1.98416,-1.395454 3.89504,-2.926688 6.0973,-3.981153 4.20053,-2.020098 8.6781,-2.974144 13.33407,-2.969844 2.95009,0.0056 6.0428,0.486322 8.78965,1.349271 7.28233,2.253545 13.5697,7.441246 17.26303,14.097848 3.54724,6.339701 4.59506,13.978044 3.01532,21.025074 -1.79055,8.38132 -7.45957,15.77063 -14.98565,19.83238 -7.83301,4.33372 -17.64217,4.74301 -25.91108,1.28158 -2.86827,-1.05906 -5.26694,-2.99254 -7.79126,-4.65863 -10.072187,-6.16702 -23.317749,-6.59164 -33.857363,-1.32706 -2.936847,1.36099 -5.358611,3.57397 -8.249108,5.01469 -4.939985,2.58105 -10.731175,3.63277 -16.20728,3.18585 -7.298893,-0.54863 -14.276966,-3.99371 -19.274792,-9.32088 -5.100068,-5.32741 -8.001236,-12.57146 -8.140072,-19.88302 C 17.26485,98.531828 19.245454,92.110956 22.927283,86.908907 28.245707,79.247476 37.459944,74.40523 46.638497,74.258 Z" />
      <path
         id="path1721"
         style="fill:#000000;fill-opacity:1;stroke:none;stroke-width:0.264583"
         d="m 34.297648,104.21173 a 13.23894,13.23894 0 0 0 13.238985,13.23847 13.23894,13.23894 0 0 0 13.238985,-13.23847 h -2.673221 c -0.02115,2.74668 -1.076192,5.4906 -3.057178,7.43158 -2.883955,3.04035 -7.647421,3.95872 -11.495939,2.35283 -3.959988,-1.48481 -6.571957,-5.61093 -6.590812,-9.78441 z" />
      <path
         id="path1721-9"
         style="fill:#000000;fill-opacity:1;stroke:none;stroke-width:0.264583"
         d="m 109.3432,104.21121 a 13.23894,13.23894 0 0 0 0,5.2e-4 13.23894,13.23894 0 0 0 13.23898,13.23847 13.23894,13.23894 0 0 0 13.23899,-13.23847 13.23894,13.23894 0 0 0 0,-5.2e-4 h -2.67322 c -0.021,2.74686 -1.07607,5.491 -3.05718,7.4321 -2.88395,3.04035 -7.64743,3.95872 -11.49594,2.35283 -3.96016,-1.48487 -6.57218,-5.61127 -6.59081,-9.78493 z" />
    </g>
  </g>
  <path
     d="m 135.26963,65.353635 v -4.967108 h 1.32644 l 1.32645,3.824109 1.36877,-3.824109 h 1.28411 v 4.967108 h -0.90311 V 62.47497 q 0,-0.112888 0.0141,-0.437444 0.0141,-0.338666 0.0282,-0.507999 h -0.0565 l -1.42522,3.824108 h -0.74789 l -1.35466,-3.824108 h -0.0565 q 0.0141,0.225777 0.0282,0.507999 0.0141,0.282222 0.0141,0.366889 v 2.94922 z m -2.921,0 v -4.205108 h -1.42522 v -0.762 h 3.75355 v 0.762 h -1.43933 v 4.205108 z"
     id="text1"
     style="font-size:14.1111px;line-height:1.25;text-align:center;letter-spacing:0px;word-spacing:0px;text-anchor:middle;stroke-width:0.264583"
     aria-label="™" />
</svg>
