<?xml version="1.0" encoding="UTF-8" standalone="no"?>
<!-- Created with Inkscape (http://www.inkscape.org/) -->

<svg
   width="140.70769mm"
   height="65.485924mm"
   viewBox="0 0 140.70769 65.485924"
   version="1.1"
   id="svg5"
   xmlns="http://www.w3.org/2000/svg"
   xmlns:svg="http://www.w3.org/2000/svg">
  <defs
     id="defs2" />
  <g
     id="layer1"
     transform="translate(-12.786141,-71.144818)">
    <g
       id="g8251"
       transform="translate(-1.8599934,-0.32368823)"
       style="stroke:none;stroke-width:0;stroke-dasharray:none;fill:#000000;fill-opacity:1">
      <path
         id="path986"
         style="fill:#000000;fill-opacity:1;stroke:none;stroke-width:0;stroke-dasharray:none"
         d="m 47.389355,71.600798 c -18.010314,-3.6e-5 -32.61068,14.600098 -32.610929,32.610412 -3.7e-5,18.01051 14.600413,32.61097 32.610929,32.61093 7.179917,-0.004 14.157517,-2.37779 19.474264,-6.48126 5.066393,-3.48524 11.523023,-5.49844 18.136361,-5.50044 6.615453,0.001 13.074423,2.01401 17.74827,5.18987 5.05086,4.18233 12.34032,6.78737 19.86287,6.79183 18.01031,-2.5e-4 32.61045,-14.60062 32.61041,-32.61093 -2.5e-4,-18.010111 -14.6003,-32.610162 -32.61041,-32.610412 -7.52255,0.0045 -14.81226,2.609502 -19.34714,6.477124 -4.350724,3.342422 -11.210627,5.639394 -18.264,5.649784 C 77.946605,83.717316 71.086701,81.420087 66.344788,77.761145 61.545609,73.970696 54.56789,71.601574 47.389355,71.600798 Z M 46.638497,74.258 c 1.459894,-0.02008 2.921971,0.04329 4.371826,0.218591 4.464113,0.527698 8.917699,2.046112 12.683464,4.622457 4.180279,3.291413 9.145122,5.575235 14.371732,6.579443 8.579306,1.636549 17.87257,0.26641 25.287861,-4.467427 1.98416,-1.395454 3.89504,-2.926688 6.0973,-3.981153 4.20053,-2.020098 8.6781,-2.974144 13.33407,-2.969844 2.95009,0.0056 6.0428,0.486322 8.78965,1.349271 7.28233,2.253545 13.5697,7.441246 17.26303,14.097848 3.54724,6.339701 4.59506,13.978044 3.01532,21.025074 -1.79055,8.38132 -7.45957,15.77063 -14.98565,19.83238 -7.83301,4.33372 -17.64217,4.74301 -25.91108,1.28158 -2.86827,-1.05906 -5.26694,-2.99254 -7.79126,-4.65863 -10.072187,-6.16702 -23.317749,-6.59164 -33.857363,-1.32706 -2.936847,1.36099 -5.358611,3.57397 -8.249108,5.01469 -4.939985,2.58105 -10.731175,3.63277 -16.20728,3.18585 -7.298893,-0.54863 -14.276966,-3.99371 -19.274792,-9.32088 -5.100068,-5.32741 -8.001236,-12.57146 -8.140072,-19.88302 C 17.26485,98.531828 19.245454,92.110956 22.927283,86.908907 28.245707,79.247476 37.459944,74.40523 46.638497,74.258 Z" />
      <path
         id="path1721"
         style="fill:#000000;fill-opacity:1;stroke:none;stroke-width:0;stroke-dasharray:none"
         d="M 47.536633,90.972742 A 13.23894,13.23894 0 0 0 34.297648,104.21173 13.23894,13.23894 0 0 0 47.536633,117.4502 13.23894,13.23894 0 0 0 60.775618,104.21173 13.23894,13.23894 0 0 0 47.536633,90.972742 Z m 0.03824,2.648417 c 3.836127,-0.02131 7.563973,2.253559 9.340515,5.655469 2.124049,3.958492 1.342754,9.218642 -1.87017,12.366682 -2.883958,3.04035 -7.647417,3.95872 -11.495939,2.35283 -4.281672,-1.60543 -6.989721,-6.29853 -6.545337,-10.80089 0.377523,-5.000533 4.808642,-9.273528 9.802502,-9.538951 0.256156,-0.02218 0.512687,-0.03372 0.768429,-0.03514 z" />
      <path
         id="path1721-9"
         style="fill:#000000;fill-opacity:1;stroke:none;stroke-width:0;stroke-dasharray:none"
         d="m 122.58199,90.97274 a 13.23894,13.23894 0 0 0 -13.23899,13.23899 13.23894,13.23894 0 0 0 13.23899,13.23847 13.23894,13.23894 0 0 0 13.23898,-13.23847 13.23894,13.23894 0 0 0 -13.23898,-13.23899 z m 0.0382,2.648417 c 3.83613,-0.02131 7.56397,2.253559 9.34051,5.655469 2.12405,3.958494 1.34276,9.218644 -1.87017,12.366684 -2.88395,3.04035 -7.64741,3.95872 -11.49593,2.35283 -4.28168,-1.60543 -6.98973,-6.29853 -6.54534,-10.80089 0.37752,-5.000535 4.80864,-9.27353 9.8025,-9.538953 0.25616,-0.02218 0.51269,-0.03372 0.76843,-0.03514 z" />
      <path
         id="path8159"
         style="fill:#000000;stroke:none;stroke-width:0;stroke-dasharray:none;fill-opacity:1"
         d="m 52.367235,99.92644 c -4.210441,0.0636 -7.263221,5.18162 -5.388672,8.93164 1.485276,3.51793 6.5627,4.83274 9.507454,2.34924 3.048329,-2.26183 3.195158,-7.38555 0.228629,-9.77802 -1.19787,-1.00991 -2.778802,-1.57058 -4.347411,-1.50286 z" />
      <path
         id="path8159-1"
         style="fill:#000000;stroke:none;stroke-width:0;stroke-dasharray:none;fill-opacity:1"
         d="m 127.44341,99.94988 c -4.13648,0.0581 -7.16927,5.00579 -5.47982,8.74353 0.9978,2.5373 3.83276,4.07091 6.51302,3.78772 2.97176,-0.22172 5.41131,-2.9724 5.45215,-5.92223 0.14499,-2.41167 -1.1547,-4.90545 -3.39355,-5.92348 -0.94727,-0.49658 -2.02418,-0.72955 -3.0918,-0.68554 z" />
    </g>
  </g>
  <path
     d="m 135.26963,65.353635 v -4.967108 h 1.32644 l 1.32645,3.824109 1.36877,-3.824109 h 1.28411 v 4.967108 h -0.90311 V 62.47497 q 0,-0.112888 0.0141,-0.437444 0.0141,-0.338666 0.0282,-0.507999 h -0.0565 l -1.42522,3.824108 h -0.74789 l -1.35466,-3.824108 h -0.0565 q 0.0141,0.225777 0.0282,0.507999 0.0141,0.282222 0.0141,0.366889 v 2.94922 z m -2.921,0 v -4.205108 h -1.42522 v -0.762 h 3.75355 v 0.762 h -1.43933 v 4.205108 z"
     id="text1"
     style="font-size:14.1111px;line-height:1.25;text-align:center;letter-spacing:0px;word-spacing:0px;text-anchor:middle;stroke-width:0.264583"
     aria-label="™" />
</svg>
